<svg width="180" height="32" viewBox="0 0 180 32" fill="none" xmlns="http://www.w3.org/2000/svg">
<path d="M9.41669 16.1937C9.41669 13.6795 10.8002 11.3842 13.0114 10.096L21.3542 5.24056L21.3591 5.23763C22.5924 4.52827 23.9819 4.13333 25.404 4.08821C26.7371 4.04593 28.0607 4.31236 29.2722 4.86458L29.5134 4.97884L29.5173 4.98079L37.8903 9.14876C38.311 9.35816 38.5791 9.78629 38.5837 10.2562C38.5881 10.726 38.3283 11.1588 37.9118 11.3763L25.28 17.972C24.9338 18.1527 24.523 18.1615 24.1696 17.9954L15.7722 14.0482C13.9585 13.1957 12.0406 14.426 11.9225 16.0365L11.9167 16.1937L11.9294 16.5579C12.0606 18.3717 13.1662 20.0485 14.9411 20.9671L22.5524 24.9027L22.8044 25.0218C23.4001 25.2836 24.0452 25.4186 24.6979 25.4173C25.4419 25.4158 26.1746 25.2369 26.8356 24.8958L35.3102 20.4691C35.8146 20.2056 36.0836 19.7364 36.0837 19.2708V17.6087L25.28 23.2493C24.9224 23.436 24.4963 23.4383 24.1364 23.2562L15.0143 18.639C14.3984 18.3272 14.1518 17.5753 14.4636 16.9593C14.7754 16.3436 15.5274 16.0968 16.1432 16.4085L24.6931 20.7357L36.7546 14.4388C37.1421 14.2365 37.6073 14.2513 37.9811 14.4779C38.3549 14.7044 38.5837 15.1101 38.5837 15.5472V19.2708C38.5836 20.725 37.7452 22.0177 36.4684 22.6849L27.9938 27.1117L27.989 27.1146C26.9732 27.6401 25.8465 27.915 24.7028 27.9173C23.559 27.9196 22.4308 27.6488 21.4128 27.1273L21.4089 27.1253L13.7927 23.1878H13.7917C11.12 21.805 9.4168 19.1355 9.41669 16.1937ZM25.4831 6.58724C24.4716 6.61936 23.4835 6.90011 22.6061 7.40462L15.7224 11.4095C16.0987 11.4925 16.4722 11.6156 16.8356 11.7865L24.6716 15.4691L34.5817 10.2943L28.4069 7.22103L28.0622 7.0638C27.2481 6.7224 26.3684 6.55915 25.4831 6.58724Z" fill="#4D6AFF"/>
<path d="M60.144 25H57.196L56.866 22.14H51.564L50.09 25H46.988L55.524 9.336H57.834L60.144 25ZM56.646 19.764L55.898 13.736L52.752 19.764H56.646ZM68.0293 9.336L64.8833 25H61.9793L65.1253 9.336H68.0293ZM75.8181 17.454L75.3121 19.984H68.8661L69.3721 17.454H75.8181ZM93.8862 9.336L90.7402 25H87.8362L89.7062 15.738L85.7682 21.524H83.8102L82.0502 15.694L80.1802 25H77.2762L80.4222 9.336H83.1502L85.3722 17.696L91.0482 9.336H93.8862ZM105.03 13.538L102.764 25H100.124L100.366 23.856C99.6838 24.67 98.7158 25.132 97.5278 25.132C95.2398 25.132 94.3378 23.526 94.3378 21.942C94.3378 21.392 94.3818 20.732 94.6678 19.258C95.1518 16.838 95.6578 15.386 96.5598 14.528C97.4618 13.67 98.4958 13.406 99.5078 13.406C100.74 13.406 101.598 13.868 102.17 14.726L102.412 13.538H105.03ZM101.4 17.432C101.4 16.618 101.026 15.848 99.9918 15.848C99.3978 15.848 98.8918 16.068 98.5398 16.42C98.0118 16.948 97.6818 17.806 97.3958 19.258C97.2858 19.852 97.1758 20.644 97.1758 21.106C97.1758 21.92 97.5498 22.69 98.5838 22.69C99.1778 22.69 99.6838 22.47 100.036 22.118C100.564 21.59 100.894 20.71 101.18 19.258C101.29 18.664 101.4 17.894 101.4 17.432ZM116.825 13.538L114.559 25H111.919L112.161 23.856C111.479 24.67 110.511 25.132 109.323 25.132C107.035 25.132 106.133 23.526 106.133 21.942C106.133 21.392 106.177 20.732 106.463 19.258C106.947 16.838 107.453 15.386 108.355 14.528C109.257 13.67 110.291 13.406 111.303 13.406C112.535 13.406 113.393 13.868 113.965 14.726L114.207 13.538H116.825ZM113.195 17.432C113.195 16.618 112.821 15.848 111.787 15.848C111.193 15.848 110.687 16.068 110.335 16.42C109.807 16.948 109.477 17.806 109.191 19.258C109.081 19.852 108.971 20.644 108.971 21.106C108.971 21.92 109.345 22.69 110.379 22.69C110.973 22.69 111.479 22.47 111.831 22.118C112.359 21.59 112.689 20.71 112.975 19.258C113.085 18.664 113.195 17.894 113.195 17.432ZM129.874 11.096L127.828 12.878C127.146 12.064 126.288 11.734 125.056 11.734C123.23 11.734 122.152 12.966 122.152 14.11C122.152 15.1 122.944 15.43 123.824 15.65L125.122 15.958C127.718 16.596 128.664 17.806 128.664 20.028C128.664 23.548 125.694 25.132 122.394 25.132C119.93 25.132 118.434 24.538 117.114 22.976L119.226 21.128C120.062 22.118 121.162 22.558 122.658 22.558C124.396 22.558 125.76 21.568 125.76 20.292C125.76 19.17 125.1 18.796 124.11 18.554L122.812 18.224C120.238 17.586 119.248 16.112 119.248 14.506C119.248 11.514 121.558 9.204 125.386 9.204C127.212 9.204 128.84 9.82 129.874 11.096Z" fill="#111927"/>
</svg>
